<?xml version="1.0" encoding="utf-8"?>
<!-- Generator: Adobe Illustrator 24.0.0, SVG Export Plug-In . SVG Version: 6.00 Build 0)  -->
<svg version="1.1" id="Capa_1" xmlns="http://www.w3.org/2000/svg" xmlns:xlink="http://www.w3.org/1999/xlink" x="0px" y="0px"
	 viewBox="0 0 512 512" style="enable-background:new 0 0 512 512;" xml:space="preserve">
<style type="text/css">
	.st0{fill:#4B80C2;}
</style>
<g>
	<path class="st0" d="M116,445.4c-4.1,0-7.5,3.4-7.5,7.5v51.6c0,4.1,3.4,7.5,7.5,7.5s7.5-3.4,7.5-7.5v-51.6
		C123.5,448.7,120.2,445.4,116,445.4z"/>
	<path class="st0" d="M462.4,392.2h-24c-8.3-17-22.1-30.4-39.6-38.2L301,312.1c0,0,0,0-0.1,0l-0.5-0.2c0-0.6,0-1.1,0-1.7v-39.5
		c20.1-17.6,32.7-43.4,32.7-72.1v-7.1h9.8c11.5,0,20.9-9.4,20.9-20.9v-26.4c0-9.6-6.5-17.7-15.4-20.1v-15.3
		C348.6,48.8,299.8,0,239.8,0h-5c-60,0-108.7,48.8-108.7,108.7v15.3c-8.8,2.4-15.4,10.5-15.4,20.1v26.4c0,11.5,9.4,20.9,20.9,20.9
		h9.8v7.1c0,28.7,12.7,54.5,32.8,72.1v39.4c0,0.7,0,1.4,0,2.1l-97.1,42.2c-29.8,12.5-49,41.5-49,73.8v76.3c0,4.1,3.4,7.5,7.5,7.5
		s7.5-3.4,7.5-7.5v-76.3c0-26.3,15.6-49.8,39.9-60l62.8-27.3l7.9,13.5c2.1,3.6,6.7,4.8,10.3,2.7c3.6-2.1,4.8-6.7,2.7-10.3l-7-12
		l16.2-7l3.1,2.4c0,0,0,0,0.1,0.1l46.6,35.9l-31.2,28L180,369.7c-2.1-3.6-6.7-4.8-10.3-2.7c-3.6,2.1-4.8,6.7-2.7,10.3l19,32.4
		c1.1,1.9,3.1,3.3,5.3,3.6c0.4,0.1,0.8,0.1,1.2,0.1c1.8,0,3.6-0.7,5-1.9l28.2-25.3l-22.6,116.9c-0.8,4.1,1.9,8,5.9,8.8
		c4.1,0.8,8-1.9,8.8-5.9l19.4-100.6l19.4,100.6c0.7,3.6,3.8,6.1,7.4,6.1c0.5,0,1,0,1.4-0.1c4.1-0.8,6.7-4.7,5.9-8.8l-22.6-116.9
		l28.2,25.3c1.4,1.2,3.2,1.9,5,1.9c0.4,0,0.8,0,1.2-0.1c2.2-0.3,4.2-1.7,5.3-3.6l40.5-69.2l63.7,27.3c11.8,5.2,21.6,13.7,28.4,24.4
		H340c-11.8,0-21.5,9.6-21.5,21.5v76.9c0,11.8,9.6,21.5,21.5,21.5h122.5c11.8,0,21.5-9.6,21.5-21.5v-76.9
		C483.9,401.8,474.3,392.2,462.4,392.2L462.4,392.2z M348.9,170.6c0,3.2-2.6,5.9-5.9,5.9h-9.8v-38.2h9.8c3.2,0,5.9,2.6,5.9,5.9
		V170.6z M131.6,176.5c-3.2,0-5.9-2.6-5.9-5.9v-26.4c0-3.2,2.6-5.9,5.9-5.9h9.8v38.2L131.6,176.5z M156.4,198.6l0-67.8
		c0,0,0-0.1,0-0.1c0.2-4.9,1.5-13.9,7.9-21.6c6.5-7.7,14.8-10.1,17.5-10.9c10.8-3.1,17.6,0,27,4.3c9.1,4.2,19.5,8.9,34.7,8.2
		c11.6-0.6,20.1-4.1,26.8-7.6c3.7-1.9,5.2-6.4,3.3-10.1c-1.9-3.7-6.4-5.2-10.1-3.3c-6.5,3.3-12.5,5.6-20.8,6
		c-11.6,0.6-19.4-3-27.7-6.8c-10-4.6-21.3-9.7-37.4-5.1c-10.2,2.9-18.6,8.2-24.8,15.7c-6.8,8.1-9.6,17-10.8,23.9h-1v-14.5
		c0-51.7,42.1-93.7,93.7-93.7h5c51.7,0,93.7,42.1,93.7,93.7v14.5h-0.7c-0.6-5.3-2.2-11.6-5.7-17.8c-6-10.8-16.6-19.3-28.4-22.8
		c-4-1.2-8.1,1.1-9.3,5c-1.2,4,1.1,8.1,5,9.3c3,0.9,13.4,4.7,19.6,15.7c3.7,6.7,4.3,13.3,4.1,17.8c0,0.1,0,0.2,0,0.3v67.8
		c0,44.6-36.3,80.9-80.9,80.9C192.7,279.5,156.4,243.2,156.4,198.6L156.4,198.6z M190.2,320c-0.3-1.3-0.5-2.6-0.7-4
		c-0.2-1.9-0.4-3.9-0.4-5.9v-28.6c14.2,8.2,30.6,13,48.1,13c17.5,0,34-4.7,48.2-13v28.7c0,1.9-0.1,3.8-0.3,5.7
		c-0.2,1.4-0.4,2.8-0.7,4.2l-47.1,36.3L190.2,320z M280.3,394.2l-31.2-28l50.1-38.6l12.5,5.4l3.6,1.5L280.3,394.2z M468.9,490.5
		c0,3.6-2.9,6.5-6.5,6.5H340c-3.6,0-6.5-2.9-6.5-6.5v-76.9c0-3.6,2.9-6.5,6.5-6.5h93.6c0,0,0,0,0,0c0,0,0,0,0,0h28.8
		c3.6,0,6.5,2.9,6.5,6.5L468.9,490.5z"/>
	<path class="st0" d="M454.8,440.5c0-11.3-9.5-20.4-21.1-20.4h-13.2c0,0,0,0,0,0s0,0,0,0c-4.1,0-7.5,3.4-7.5,7.5v49.7
		c0,4.1,3.4,7.5,7.5,7.5s7.5-3.4,7.5-7.5v-10.7l13.7,15.6c1.5,1.7,3.6,2.5,5.6,2.5c1.8,0,3.5-0.6,5-1.9c3.1-2.7,3.4-7.5,0.7-10.6
		l-11.4-12.9C449.3,456.4,454.8,449.1,454.8,440.5L454.8,440.5z M433.7,435.1c3.3,0,6.1,2.5,6.1,5.4c0,2.9-2.8,5.4-6.1,5.4
		c-1.4,0-3.5,0-5.7,0c0-2.1,0-4.1,0-5.4c0-1.1,0-3.2,0-5.4L433.7,435.1L433.7,435.1z"/>
	<path class="st0" d="M390.2,420.1c-4.1,0-7.5,3.4-7.5,7.5v16.5h-19.4v-16.5c0-4.1-3.4-7.5-7.5-7.5s-7.5,3.4-7.5,7.5v49.7
		c0,4.1,3.4,7.5,7.5,7.5s7.5-3.4,7.5-7.5v-18.2h19.4v18.2c0,4.1,3.4,7.5,7.5,7.5s7.5-3.4,7.5-7.5v-49.7
		C397.7,423.5,394.4,420.1,390.2,420.1z"/>
</g>
</svg>
