<svg xmlns="http://www.w3.org/2000/svg" viewBox="0 0 11.15 7"><defs><style>.cls-1{fill:#2f4694;}.cls-2{fill:#fcf5fa;}.cls-3{fill:#e6302e;}.cls-4{fill:#fff;}.cls-5{fill:#cd132d;}</style></defs><title>Ресурс 1</title><g id="Слой_2" data-name="Слой 2"><g id="Слой_1-2" data-name="Слой 1"><polygon class="cls-1" points="11.14 0.02 11.14 7 11.14 7 0.01 7 0.01 0.02 11.14 0.02"/><polygon class="cls-2" points="11.14 6.27 11.14 7 11.14 7 9.98 7 6.57 4.85 6.22 4.64 5.82 4.39 5.68 4.3 5.28 4.04 5.12 3.95 4.99 3.87 4.73 3.71 4.65 3.65 4.53 3.58 3.31 2.81 2.77 2.47 0.01 0.74 0.01 0.02 0.02 0 0.04 0.02 1.17 0.02 4.65 2.2 4.99 2.41 5.08 2.47 5.63 2.81 5.68 2.85 5.89 2.98 6.22 3.19 6.28 3.22 6.57 3.4 6.84 3.58 7.59 4.04 8.14 4.39 11.14 6.27"/><polygon class="cls-3" points="11.14 6.97 11.15 7 10.4 7 6.57 4.59 6.24 4.39 6.22 4.38 5.89 4.17 5.7 4.04 5.33 3.82 4.99 3.6 4.95 3.58 4.73 3.44 4.65 3.39 3.73 2.81 3.19 2.47 0.01 0.48 0.01 0 0.02 0 0.04 0.02 3.96 2.47 4.5 2.81 4.65 2.91 4.99 3.12 5.12 3.2 5.33 3.33 5.72 3.58 6.22 3.89 6.28 3.93 6.47 4.04 6.57 4.11 7.01 4.39 11.14 6.97"/><polygon class="cls-2" points="11.14 0.15 11.14 0.88 8.6 2.47 8.06 2.81 6.84 3.58 6.57 3.75 6.28 3.93 6.22 3.96 6.09 4.04 5.89 4.17 5.68 4.3 5.55 4.39 4.99 4.74 4.65 4.95 1.39 7 0.01 7 0.01 6.41 3.23 4.39 3.77 4.04 4.53 3.58 4.65 3.5 4.73 3.44 4.99 3.28 5.12 3.2 5.68 2.85 5.74 2.81 6.22 2.51 6.29 2.47 6.57 2.29 10.2 0.02 11.05 0.02 11.14 0.15"/><polygon class="cls-3" points="11.11 0.19 7.48 2.47 6.93 2.81 6.57 3.04 6.28 3.22 6.22 3.26 5.72 3.58 5.33 3.82 5.12 3.95 4.99 4.03 4.97 4.04 4.65 4.24 4.42 4.39 0.26 7 0.01 7 0.01 6.67 3.65 4.39 4.2 4.04 4.65 3.76 4.73 3.71 4.95 3.58 4.99 3.54 5.33 3.33 5.89 2.98 6.16 2.81 6.22 2.77 6.57 2.56 6.7 2.47 10.62 0.02 11.01 0.02 11.14 0.02 11.14 0.17 11.11 0.19"/><rect class="cls-4" y="2.47" width="11.15" height="1.92"/><rect class="cls-3" y="2.81" width="11.15" height="1.23"/><rect class="cls-5" x="4.99" y="0.02" width="1.23" height="6.98"/><polygon class="cls-4" points="6.22 4.39 6.56 4.39 6.56 7 4.65 7 4.65 4.39 4.99 4.39 4.99 2.47 4.65 2.47 4.65 0.02 6.56 0.02 6.56 2.47 6.22 2.47 6.22 4.39"/><rect class="cls-3" x="4.98" y="0.02" width="1.24" height="6.98"/></g></g></svg>