<svg xmlns="http://www.w3.org/2000/svg" viewBox="0 0 513.84 133.15"><defs><style>.cls-1{fill:#4c80c2;}</style></defs><title>Ресурс 1</title><g id="Слой_2" data-name="Слой 2"><g id="Слой_1-2" data-name="Слой 1"><polygon class="cls-1" points="0.71 46.29 27.89 46.29 27.89 42.32 62.46 42.32 62.46 40.74 83.87 40.74 83.87 38.36 8.33 38.36 0.71 46.29"/><polyline class="cls-1" points="10.28 35.98 32.33 35.98 32.33 32.49 58.49 32.49 58.49 30.75 73.56 30.75 73.56 29 17.42 29"/><polyline class="cls-1" points="19.96 26.46 36.13 26.46 36.13 23.29 54.69 23.29 54.69 21.23 64.2 21.23 64.2 19.33 27.14 19.33"/><polyline class="cls-1" points="30.18 16.27 40.57 16.32 40.57 13.14 50.25 13.14 50.25 11.24 55 11.24 55 9.34 37.13 9.34"/><polyline class="cls-1" points="39.74 6.68 52.15 6.64 45.92 0.26"/><polygon class="cls-1" points="45.18 125.38 45.39 125.19 44.98 125.19 45.18 125.38"/><path class="cls-1" d="M91.21,59.7,46,104.67,0,59.31l0,73.55,91.39.21ZM78,125.19H13.38l.14-32.66L45.19,124,78,92.43Z"/><polygon class="cls-1" points="29.11 55.49 29.11 51.84 62.1 51.84 62.1 50.25 88.27 50.25 88.27 48.35 0.81 48.51 7.86 55.49 29.11 55.49"/><polygon class="cls-1" points="32.76 65 32.92 61.51 58.14 61.51 58.3 59.77 78.28 59.77 78.28 57.87 10.57 58.18 17.46 65 32.76 65"/><polygon class="cls-1" points="36.78 74.83 36.78 71.56 54.01 71.56 54.01 69.76 69.24 69.76 69.24 67.96 20.45 67.96 27.38 74.83 36.78 74.83"/><polygon class="cls-1" points="41.54 84.24 41.54 81.6 50.31 81.6 50.31 79.7 58.98 79.7 58.98 77.48 30.05 77.48 36.88 84.24 41.54 84.24"/><polygon class="cls-1" points="51.05 86.89 39.55 86.89 45.61 92.89 51.05 86.89"/><polygon class="cls-1" points="27.21 74.83 27.38 74.83 20.45 67.96 20.27 67.96 27.21 74.83"/><polygon class="cls-1" points="20.27 67.96 20.09 67.96 27.03 74.83 27.21 74.83 20.27 67.96"/><polygon class="cls-1" points="36.7 84.24 36.88 84.24 30.05 77.48 29.88 77.48 36.7 84.24"/><polygon class="cls-1" points="45.53 92.98 45.61 92.89 39.55 86.89 39.37 86.89 45.53 92.98"/><path class="cls-1" d="M105.65.51h6.86v29.8h-6.86Z"/><path class="cls-1" d="M147.24.51v29.8h-6.9V18.09H126.81V30.31h-6.9V.51h6.9V12.26h13.53V.51Z"/><path class="cls-1" d="M160.54,28.84a14.85,14.85,0,0,1-5.79-5.49,15.18,15.18,0,0,1-2.11-7.94,15.18,15.18,0,0,1,2.11-7.94A14.85,14.85,0,0,1,160.54,2a18.48,18.48,0,0,1,15.28-.62,14.07,14.07,0,0,1,5.26,3.92l-4.43,4.09a9.51,9.51,0,0,0-7.49-3.5,9.9,9.9,0,0,0-4.93,1.22,8.61,8.61,0,0,0-3.39,3.38,10,10,0,0,0-1.22,4.94,9.94,9.94,0,0,0,1.22,4.94,8.67,8.67,0,0,0,3.39,3.38,9.9,9.9,0,0,0,4.93,1.21,9.44,9.44,0,0,0,7.49-3.53l4.43,4.09a13.85,13.85,0,0,1-5.28,4,17.48,17.48,0,0,1-7,1.36A17.13,17.13,0,0,1,160.54,28.84Z"/><path class="cls-1" d="M208.07,6.13h-9.53V30.31h-6.81V6.13h-9.5V.51h25.84Z"/><path class="cls-1" d="M212.41.51h6.85V19.92L233.48.51H240v29.8h-6.81V10.94L218.92,30.31h-6.51Z"/><path class="cls-1" d="M270.14,6.13H260.6V30.31h-6.81V6.13H244.3V.51h25.84Z"/><path class="cls-1" d="M300.1.51,287.41,24.09a14,14,0,0,1-4.4,5.15,9.74,9.74,0,0,1-5.6,1.75,12.84,12.84,0,0,1-4.85-1l1.66-5.24a10.49,10.49,0,0,0,3,.56,4.38,4.38,0,0,0,2.3-.62,6,6,0,0,0,1.87-1.94l.26-.34L269.88.51h7.36l7.92,16,8.17-16Z"/><path class="cls-1" d="M326.24,6.13H316.7V30.31h-6.81V6.13H300.4V.51h25.84Z"/><path class="cls-1" d="M132.77,81.39l0-17.84L124,78.24h-3.07l-8.77-14.35v17.5h-6.47V51.59h5.71l11.15,18.52,11-18.52h5.71l0,29.8Z"/><path class="cls-1" d="M152.5,79.9a14.81,14.81,0,0,1-5.83-5.51,15.2,15.2,0,0,1,5.83-21.31,18.45,18.45,0,0,1,16.71,0A15.15,15.15,0,0,1,175,58.59a15.2,15.2,0,0,1-5.83,21.31,18.45,18.45,0,0,1-16.71,0Zm13.13-5.09A8.68,8.68,0,0,0,169,71.43a10.69,10.69,0,0,0,0-9.88,8.75,8.75,0,0,0-3.34-3.38,9.93,9.93,0,0,0-9.54,0,8.75,8.75,0,0,0-3.34,3.38,10.69,10.69,0,0,0,0,9.88,8.68,8.68,0,0,0,3.34,3.38,10,10,0,0,0,9.54,0Z"/><path class="cls-1" d="M209.82,51.59v29.8h-6.9V69.17H189.39V81.39h-6.9V51.59h6.9V63.34h13.53V51.59Z"/><path class="cls-1" d="M223.12,79.9a14.81,14.81,0,0,1-5.83-5.51,15.2,15.2,0,0,1,5.83-21.31,18.45,18.45,0,0,1,16.71,0,15.15,15.15,0,0,1,5.83,5.51,15.2,15.2,0,0,1-5.83,21.31,18.45,18.45,0,0,1-16.71,0Zm13.13-5.09a8.68,8.68,0,0,0,3.34-3.38,10.69,10.69,0,0,0,0-9.88,8.75,8.75,0,0,0-3.34-3.38,9.92,9.92,0,0,0-9.53,0,8.77,8.77,0,0,0-3.35,3.38,10.69,10.69,0,0,0,0,9.88,8.71,8.71,0,0,0,3.35,3.38,10,10,0,0,0,9.53,0Z"/><path class="cls-1" d="M264.64,69.39h-4.77v12H253V51.59h6.85v12h4.94l7.83-12h7.28L270.18,66l10,15.41h-7.83Z"/><path class="cls-1" d="M303.23,52.91a10.17,10.17,0,0,1,4.49,3.75,11.2,11.2,0,0,1,0,11.47,10,10,0,0,1-4.49,3.74,16.68,16.68,0,0,1-6.87,1.3h-6v8.22h-6.9V51.59h12.9A16.51,16.51,0,0,1,303.23,52.91Zm-2.53,13.3a4.66,4.66,0,0,0,1.62-3.81,4.73,4.73,0,0,0-1.62-3.85A7.27,7.27,0,0,0,296,57.21h-5.61V67.55H296A7.21,7.21,0,0,0,300.7,66.21Z"/><path class="cls-1" d="M313.85,51.59h6.85V71l14.22-19.41h6.47v29.8h-6.81V62L320.36,81.39h-6.51Z"/><path class="cls-1" d="M354.65,79.92a14.85,14.85,0,0,1-5.79-5.49,16.06,16.06,0,0,1,0-15.88,14.85,14.85,0,0,1,5.79-5.49,18.5,18.5,0,0,1,15.29-.62,14.11,14.11,0,0,1,5.25,3.92l-4.42,4.09a9.54,9.54,0,0,0-7.5-3.5,9.9,9.9,0,0,0-4.93,1.22A8.67,8.67,0,0,0,355,61.55a10.69,10.69,0,0,0,0,9.88,8.61,8.61,0,0,0,3.39,3.38A9.9,9.9,0,0,0,363.27,76a9.48,9.48,0,0,0,7.5-3.53l4.42,4.09a13.85,13.85,0,0,1-5.28,4,17.44,17.44,0,0,1-7,1.36A17.13,17.13,0,0,1,354.65,79.92Z"/><path class="cls-1" d="M402.18,57.21h-9.53V81.39h-6.81V57.21h-9.5V51.59h25.84Z"/><path class="cls-1" d="M425.21,75H411.37l-2.64,6.39h-7.06L415,51.59h6.81l13.32,29.8h-7.23ZM423,69.77l-4.73-11.41-4.72,11.41Z"/><path class="cls-1" d="M465.86,51.59v29.8h-6.81V57.21H448.84l-.22,6.22a63.39,63.39,0,0,1-1,10.28,12.74,12.74,0,0,1-2.7,6,6.76,6.76,0,0,1-5.3,2.11,15.47,15.47,0,0,1-3.41-.47l.43-5.83a4.25,4.25,0,0,0,1.23.17q2.47,0,3.45-2.92a35.76,35.76,0,0,0,1.23-9.13L443,51.59Z"/><path class="cls-1" d="M473.31,51.59h6.85v29.8h-6.85Z"/><path class="cls-1" d="M512.39,68.49A7.07,7.07,0,0,1,513.84,73a7.24,7.24,0,0,1-3,6.18q-3,2.2-8.57,2.21H487.57V51.59h13.88q5.19,0,8.09,2a6.53,6.53,0,0,1,2.89,5.71,7,7,0,0,1-1.1,3.89,7.67,7.67,0,0,1-3.11,2.66A8.1,8.1,0,0,1,512.39,68.49Zm-18-4.55h6.43a5.4,5.4,0,0,0,3.41-.92,3.26,3.26,0,0,0,1.15-2.7,3.22,3.22,0,0,0-1.17-2.68,5.29,5.29,0,0,0-3.39-.94h-6.43Zm12.44,8.51q0-3.7-4.86-3.7h-7.58v7.53H502Q506.86,76.28,506.86,72.45Z"/><path class="cls-1" d="M133,102.67v29.8h-6.9V120.25H112.55v12.22h-6.9v-29.8h6.9v11.75h13.53V102.67Z"/><path class="cls-1" d="M160.61,126.09H146.77l-2.64,6.38h-7.06l13.28-29.8h6.81l13.32,29.8h-7.24Zm-2.17-5.24-4.73-11.41L149,120.85Z"/><path class="cls-1" d="M201.77,102.67v29.8h-6.9V120.25H181.34v12.22h-6.9v-29.8h6.9v11.75h13.53V102.67Z"/><path class="cls-1" d="M248.17,102.67l-12.69,23.59a14.13,14.13,0,0,1-4.4,5.15,9.8,9.8,0,0,1-5.6,1.74,12.84,12.84,0,0,1-4.85-1l1.66-5.24a10.43,10.43,0,0,0,3,.56,4.38,4.38,0,0,0,2.3-.62,6,6,0,0,0,1.87-1.94l.25-.34L218,102.67h7.36l7.92,16,8.17-16Z"/><path class="cls-1" d="M263,120.47h-4.76v12h-6.86v-29.8h6.86v12h4.93l7.83-12h7.28l-9.74,14.39,10,15.41h-7.83Z"/><path class="cls-1" d="M301.57,104a9.88,9.88,0,0,1,6.07,9.49,10.35,10.35,0,0,1-1.58,5.73,10.1,10.1,0,0,1-4.49,3.75,16.89,16.89,0,0,1-6.88,1.29h-6v8.22H281.8v-29.8h12.89A16.56,16.56,0,0,1,301.57,104ZM299,117.3a5.35,5.35,0,0,0,0-7.67,7.29,7.29,0,0,0-4.73-1.34h-5.62v10.35h5.62A7.29,7.29,0,0,0,299,117.3Z"/><path class="cls-1" d="M330.88,126.09H317l-2.64,6.38h-7.06l13.28-29.8h6.81l13.32,29.8h-7.23Zm-2.17-5.24L324,109.44l-4.72,11.41Z"/><path class="cls-1" d="M341.56,99.2a3,3,0,0,1,0-4.21,3,3,0,0,1,2.13-.83,3,3,0,0,1,2.11,5,2.83,2.83,0,0,1-2.11.83A2.91,2.91,0,0,1,341.56,99.2Zm3,3.47h6.9v29.8h-6.9Zm5.64-3.47a3.08,3.08,0,0,1,0-4.21,2.89,2.89,0,0,1,2.11-.83,3,3,0,0,1,2.13.83,3,3,0,0,1,0,4.21,2.91,2.91,0,0,1-2.13.83A2.85,2.85,0,0,1,350.18,99.2Z"/><path class="cls-1" d="M386,102.67v29.8h-6.9V120.25H365.57v12.22h-6.9v-29.8h6.9v11.75H379.1V102.67Z"/><path class="cls-1" d="M393.45,102.67h6.85v19.41l14.22-19.41H421v29.8h-6.81V113.1L400,132.47h-6.51Z"/></g></g></svg>