<?xml version="1.0" encoding="utf-8"?>
<!-- Generator: Adobe Illustrator 24.0.0, SVG Export Plug-In . SVG Version: 6.00 Build 0)  -->
<svg version="1.1" id="Layer_3" xmlns="http://www.w3.org/2000/svg" xmlns:xlink="http://www.w3.org/1999/xlink" x="0px" y="0px"
	 viewBox="0 0 512 512" style="enable-background:new 0 0 512 512;" xml:space="preserve">
<style type="text/css">
	.st0{fill:#4B80C2;}
</style>
<path class="st0" d="M504,304c0-22.1-17.9-40-40-40h-0.7c-11.1-19.1-31.7-32-55.3-32s-44.3,12.9-55.3,32H352v-73.8
	c0-16.6-10.4-31.6-26-37.5l-38-14.3v-11.1c19.1-11.1,32-31.7,32-55.3c0-35.3-28.7-64-64-64s-64,28.7-64,64c0,23.6,12.9,44.3,32,55.3
	v11.1l-38,14.3c-15.5,5.8-26,20.9-26,37.4V264h-0.7c-11.1-19.1-31.7-32-55.3-32s-44.3,12.9-55.3,32H48c-22.1,0-40,17.9-40,40v80
	c0,8.4,2.6,16.4,7.4,23.1c-4.7,6.6-7.4,14.6-7.4,23.1V496c0,4.4,3.6,8,8,8h176c4.4,0,8-3.6,8-8v-65.8c0-2.1-0.2-4.2-0.5-6.2h113
	c-0.3,2-0.5,4.1-0.5,6.2V496c0,4.4,3.6,8,8,8h176c4.4,0,8-3.6,8-8v-65.8c0-8.4-2.7-16.5-7.4-23.1c4.8-6.7,7.4-14.7,7.4-23.1L504,304
	z M488,304v80c0,4.3-1.2,8.4-3.3,12c-2.1-1.3-4.3-2.4-6.6-3.3l-38-14.3v-27.1c19.1-11.1,32-31.7,32-55.3c0-5.2-0.7-10.3-1.9-15.1
	C480.4,283.6,488,292.9,488,304L488,304z M408,344c-17.9,0-33.5-9.9-41.8-24.5c13.2,5.5,27.5,8.5,41.8,8.5s28.6-3,41.8-8.5
	C441.5,334.1,425.9,344,408,344z M392,357.9c5.1,1.3,10.5,2.1,16,2.1s10.9-0.8,16-2.1V376h-32V357.9z M408,248c26.5,0,48,21.5,48,48
	c0,1.1-0.1,2.1-0.2,3.1l-6,3c-25.9,12.9-57.9,12.9-83.8,0l-6-3c-0.1-1-0.2-2.1-0.2-3.1C360,269.5,381.5,248,408,248z M336,190.2V264
	h-69.8l13.5-54.1c0.4-1.5,0.3-3-0.2-4.5l-6.4-19.3l4.5-4.5c2.1-2.1,2.9-5.3,1.9-8.2l-5.3-16l6.8-4.5l39.4,14.8
	C329.7,171.2,336,180.2,336,190.2L336,190.2z M251.6,166.7c1.3,0.9,2.9,1.3,4.4,1.3s3.1-0.4,4.4-1.3l0,0l2.4,7.2l-6.9,6.8l-6.8-6.8
	L251.6,166.7L251.6,166.7z M251.6,198.5c1.3,0.9,2.8,1.5,4.4,1.5c1.6,0,3.1-0.6,4.4-1.5l3.3,9.8L256,239l-7.7-30.7L251.6,198.5z
	 M256,24c19.1,0,35.5,11.2,43.2,27.3l-32.7-10.9c-1.7-0.6-3.6-0.5-5.3,0.1l-51.6,19.3C215,39.3,233.7,24,256,24z M208.3,77.4
	l55.8-20.9l39.7,13.2c0,0.8,0.1,1.5,0.1,2.3c0,26.5-21.5,48-48,48C231.4,120,211,101.3,208.3,77.4L208.3,77.4z M256,136
	c5.5,0,10.9-0.8,16-2.1v5.8l-16,10.7l-16-10.7v-5.8C245.1,135.2,250.5,136,256,136L256,136z M176,190.2c0-10,6.3-19,15.6-22.5
	l39.4-14.8l6.8,4.5l-5.3,16c-1,2.9-0.2,6,1.9,8.2l4.5,4.5l-6.4,19.3c-0.5,1.4-0.5,3-0.2,4.5l13.5,54.1H176V190.2z M120,376H88v-18.1
	c5.1,1.3,10.5,2.1,16,2.1s10.9-0.8,16-2.1V376z M104,344c-17.9,0-33.5-9.9-41.8-24.5C75.4,325,89.7,328,104,328s28.6-3,41.8-8.5
	C137.5,334.1,121.9,344,104,344z M104,248c26.5,0,48,21.5,48,48c0,1.1-0.1,2.1-0.2,3.1l-6,3c-25.9,12.9-57.9,12.9-83.8,0l-6-3
	c-0.1-1-0.2-2.1-0.2-3.1C56,269.5,77.5,248,104,248z M24,304c0-11.1,7.6-20.4,17.9-23.1c-1.2,4.9-1.9,9.9-1.9,15.1
	c0,23.6,12.9,44.3,32,55.3v27.1l-38,14.3c-2.3,0.9-4.5,2-6.6,3.3c-2.1-3.6-3.4-7.7-3.4-12V304z M184,488H24v-57.8
	c0-10,6.3-19,15.6-22.5L81.4,392h45.1l41.9,15.7c9.3,3.5,15.6,12.5,15.6,22.5V488z M193.2,408c-4.6-6.8-11.2-12.3-19.1-15.3
	l-38-14.3v-27.1c19.1-11.1,32-31.7,32-55.3c0-5.5-0.8-10.9-2.1-16h2.1h176h2.1c-1.3,5.1-2.1,10.5-2.1,16c0,23.6,12.9,44.3,32,55.3
	v27.1l-38,14.3c-8,3-14.6,8.4-19.1,15.3L193.2,408L193.2,408z M488,488H328v-57.8c0-10,6.3-19,15.6-22.5l41.9-15.7h45.1l41.9,15.7
	c9.3,3.5,15.6,12.5,15.6,22.5V488z"/>
</svg>
