<?xml version="1.0" encoding="utf-8"?>
<!-- Generator: Adobe Illustrator 24.0.0, SVG Export Plug-In . SVG Version: 6.00 Build 0)  -->
<svg version="1.1" id="Capa_1" xmlns="http://www.w3.org/2000/svg" xmlns:xlink="http://www.w3.org/1999/xlink" x="0px" y="0px"
	 viewBox="0 0 512 512" style="enable-background:new 0 0 512 512;" xml:space="preserve">
<style type="text/css">
	.st0{fill:#4B80C2;}
</style>
<g>
	<circle class="st0" cx="216" cy="336" r="10"/>
	<path class="st0" d="M40,136v40c0,5.5,4.5,10,10,10h289c5.5,0,10-4.5,10-10v-40c0-5.5-4.5-10-10-10H50C44.5,126,40,130.5,40,136z
		 M146,146h183v20H146V146z M60,146h66v20H60V146z"/>
	<path class="st0" d="M50,226h289c5.5,0,10-4.5,10-10s-4.5-10-10-10H50c-5.5,0-10,4.5-10,10S44.5,226,50,226z"/>
	<path class="st0" d="M50,266h289c5.5,0,10-4.5,10-10s-4.5-10-10-10H50c-5.5,0-10,4.5-10,10C40,261.5,44.5,266,50,266z"/>
	<path class="st0" d="M50,306h166c5.5,0,10-4.5,10-10s-4.5-10-10-10H50c-5.5,0-10,4.5-10,10S44.5,306,50,306z"/>
	<path class="st0" d="M50,346h126c5.5,0,10-4.5,10-10s-4.5-10-10-10H50c-5.5,0-10,4.5-10,10S44.5,346,50,346z"/>
	<path class="st0" d="M136,426h51c4.6,22.8,24.8,40,49,40c27.6,0,50-22.4,50-50s-22.4-50-50-50c-24.1,0-44.3,17.2-49,40h-51
		c-5.5,0-10,4.5-10,10S130.5,426,136,426z M236,406h-28.3c4.1-11.6,15.2-20,28.3-20c16.5,0,30,13.5,30,30s-13.5,30-30,30
		c-13,0-24.2-8.4-28.3-20H236c5.5,0,10-4.5,10-10S241.5,406,236,406z"/>
	<path class="st0" d="M339,80c5.5,0,10-4.5,10-10s-4.5-10-10-10h-20c-5.5,0-10,4.5-10,10s4.5,10,10,10H339z"/>
	<path class="st0" d="M279,80c5.5,0,10-4.5,10-10s-4.5-10-10-10h-20c-5.5,0-10,4.5-10,10s4.5,10,10,10H279z"/>
	<path class="st0" d="M219,80c5.5,0,10-4.5,10-10s-4.5-10-10-10h-20c-5.5,0-10,4.5-10,10s4.5,10,10,10H219z"/>
	<circle class="st0" cx="196" cy="502" r="10"/>
	<path class="st0" d="M10,512h141c5.5,0,10-4.5,10-10s-4.5-10-10-10H20V100h70c5.5,0,10-4.5,10-10V20h269v282.7
		c-4.5,5.4-8.8,10.1-12.4,13.8l-21.2-21.2c-19.5-19.5-51.2-19.6-70.7,0l-14.1,14.1c-3.9,3.9-3.9,10.2,0,14.1L369,442.1V492H241
		c-5.5,0-10,4.5-10,10s4.5,10,10,10h138c5.5,0,10-4.5,10-10v-39.9l2.9,2.9c3.9,3.9,10.2,3.9,14.1,0l14.1-14.1
		c19.5-19.5,19.5-51.2,0-70.7L399,358.9c19-18.5,60.7-49.2,82.6-58.7c30.8-13.4,41.9-55.2,15.6-81.5c-26.1-26.1-67.7-15.5-81.4,15.4
		c-5.1,11.6-15.7,27.8-26.9,43.1V10c0-5.5-4.5-10-10-10H90c-2.7,0-5.3,1.1-7.1,2.9l-80,80C1.1,84.7,0,87.3,0,90v412
		C0,507.5,4.5,512,10,512L10,512z M406.1,394.3c11.7,11.7,11.7,30.7,0,42.4l-7.1,7.1L271.7,316.5l7.1-7.1
		c11.7-11.7,30.7-11.7,42.4,0L406.1,394.3z M386.9,312.5c17.3-20.9,38.7-50.7,47.3-70.3c7.8-17.6,32.5-25.8,48.9-9.3
		c16.5,16.5,8.1,41.4-9.5,49c-24.9,10.8-68.2,42.8-88.8,62.9l-14.2-14.2C375.5,325.8,381,319.6,386.9,312.5L386.9,312.5z M80,34.1
		V80H34.2L80,34.1z"/>
</g>
</svg>
