<?xml version="1.0" encoding="utf-8"?>
<!-- Generator: Adobe Illustrator 24.0.0, SVG Export Plug-In . SVG Version: 6.00 Build 0)  -->
<svg version="1.1" id="Слой_1" xmlns="http://www.w3.org/2000/svg" xmlns:xlink="http://www.w3.org/1999/xlink" x="0px" y="0px"
	 viewBox="0 0 512 512" style="enable-background:new 0 0 512 512;" xml:space="preserve">
<style type="text/css">
	.st0{fill:#4B80C2;}
</style>
<g>
	<path class="st0" d="M443.4,233.1H289.4c-4.1,0-7.5,3.4-7.5,7.5c0,4.1,3.4,7.5,7.5,7.5h153.9c4.1,0,7.5-3.4,7.5-7.5
		C450.9,236.5,447.5,233.1,443.4,233.1z"/>
	<path class="st0" d="M443.4,273.3H289.4c-4.1,0-7.5,3.4-7.5,7.5c0,4.1,3.4,7.5,7.5,7.5h153.9c4.1,0,7.5-3.4,7.5-7.5
		C450.9,276.7,447.5,273.3,443.4,273.3z"/>
	<path class="st0" d="M443.4,313.5H289.4c-4.1,0-7.5,3.4-7.5,7.5c0,4.1,3.4,7.5,7.5,7.5h153.9c4.1,0,7.5-3.4,7.5-7.5
		C450.9,316.9,447.5,313.5,443.4,313.5z"/>
	<path class="st0" d="M443.4,353.7H289.4c-4.1,0-7.5,3.4-7.5,7.5s3.4,7.5,7.5,7.5h153.9c4.1,0,7.5-3.4,7.5-7.5
		S447.5,353.7,443.4,353.7z"/>
	<path class="st0" d="M95,143.9c9.7-1.2,19.3-1.8,28.5-1.8c51.4,0,85.4,17.9,101.1,28.6c1.3,0.9,2.8,1.3,4.2,1.3
		c2.4,0,4.8-1.2,6.2-3.3c2.3-3.4,1.4-8.1-2-10.4c-17.1-11.6-54.1-31.2-109.5-31.2c-9.9,0-20.1,0.7-30.4,1.9c-4.1,0.5-7,4.3-6.5,8.4
		S90.9,144.4,95,143.9z"/>
	<path class="st0" d="M95,193.1c9.7-1.2,19.3-1.8,28.5-1.8c51.4,0,85.4,17.9,101.1,28.6c1.3,0.9,2.8,1.3,4.2,1.3
		c2.4,0,4.8-1.1,6.2-3.3c2.3-3.4,1.4-8.1-2-10.4c-17.1-11.6-54.1-31.2-109.5-31.2c-9.9,0-20.1,0.7-30.4,1.9c-4.1,0.5-7,4.3-6.5,8.4
		S90.9,193.6,95,193.1z"/>
	<path class="st0" d="M228.9,270.3c2.4,0,4.8-1.1,6.2-3.3c2.3-3.4,1.4-8.1-2-10.4C216,245,179,225.5,123.6,225.5
		c-9.9,0-20.1,0.7-30.4,1.9c-4.1,0.5-7,4.3-6.5,8.4c0.5,4.1,4.3,7,8.4,6.5c9.7-1.2,19.3-1.8,28.5-1.8c51.4,0,85.4,17.9,101.1,28.6
		C225.9,269.9,227.4,270.3,228.9,270.3z"/>
	<path class="st0" d="M233.1,305.8c-13.8-9.3-43.3-25.7-87-30c-4.1-0.4-7.8,2.6-8.2,6.7c-0.4,4.1,2.6,7.8,6.7,8.2
		c40.4,4,67.5,19,80.1,27.5c1.3,0.9,2.8,1.3,4.2,1.3c2.4,0,4.8-1.1,6.2-3.3C237.4,312.8,236.5,308.1,233.1,305.8z"/>
	<path class="st0" d="M110,275.1c-5.5,0.3-11.2,0.8-16.8,1.5c-4.1,0.5-7,4.3-6.5,8.4c0.5,3.8,3.7,6.6,7.4,6.6c0.3,0,0.6,0,0.9-0.1
		c5.3-0.7,10.6-1.2,15.8-1.5c4.1-0.2,7.3-3.8,7.1-7.9C117.7,278,114.1,274.8,110,275.1z"/>
	<path class="st0" d="M440.1,141.8H292.7c-5.9,0-10.8,4.8-10.8,10.8v39.8c0,5.9,4.8,10.8,10.8,10.8H313c4.1,0,7.5-3.4,7.5-7.5
		s-3.4-7.5-7.5-7.5h-16.1v-31.4h138.9v31.4h-87.9c-4.1,0-7.5,3.4-7.5,7.5s3.4,7.5,7.5,7.5h92.2c5.9,0,10.8-4.8,10.8-10.8v-39.8
		C450.9,146.6,446,141.8,440.1,141.8z"/>
	<path class="st0" d="M499.8,136.8h-15.5v-27.4c0-8.1-6.6-14.8-14.8-14.8H258.8c-5.7-4.7-21.8-16.9-47.6-27.3
		C181.8,55.6,133.6,44.1,71,56.1c-6.7,1.3-11.5,7.1-11.5,13.9v24.6h-20c-6.5,0-11.8,5.3-11.8,11.8v30.3H12.2
		c-6.7,0-12.2,5.5-12.2,12.2v291.2c0,6.7,5.5,12.2,12.2,12.2h199.5c1.3,0,2.6,0.6,3.3,1.7c3.6,4.8,9.3,7.7,15.4,7.7h51.2
		c6,0,11.8-2.9,15.4-7.7c0.8-1.1,2-1.7,3.3-1.7h199.5c6.7,0,12.2-5.5,12.2-12.2V148.9C512,142.2,506.5,136.8,499.8,136.8z
		 M263.5,109.6h205.8v301.5H263.5V109.6z M74.5,70.7c58.4-11.1,103.1-0.5,130.4,10.3c23.2,9.2,38.1,20.2,43.6,24.6v297.8
		c-19.8-13.4-62.3-36-124.8-36c-15.2,0-31.7,1.4-49.3,4.5V70.7z M42.7,109.6h16.8V373c0,4.2,1.9,8.2,5.1,10.9
		c3.2,2.7,7.4,3.8,11.6,3c57.8-10.6,102.2,0,129.2,10.8c11.1,4.4,20.2,9.2,27.3,13.4H42.7V109.6z M497,437.2H300.3
		c-6,0-11.8,2.9-15.4,7.7c-0.8,1.1-2,1.7-3.3,1.7h-51.2c-1.3,0-2.6-0.6-3.3-1.7c-3.6-4.8-9.4-7.7-15.4-7.7H15V151.8h12.7v262.6
		c0,6.5,5.3,11.8,11.8,11.8h430.1c8.1,0,14.8-6.6,14.8-14.8V151.8H497V437.2z"/>
</g>
</svg>
